<?xml version="1.0" encoding="UTF-8"?>
<svg id="Layer_1" data-name="Layer 1" xmlns="http://www.w3.org/2000/svg" viewBox="0 0 172.8 307.2">
  <path d="m51.22,146.51c2.68-3.25,5.32-6.5,8.58-9.06,3.28-2.58,6.22-5.66,10.14-7.36.88-.38,1.75-.79,2.65-1.12.4-.15.92-.27,1.23.14.33.43-.03.79-.28,1.17-.74,1.11-1.78,1.95-2.65,2.93-.27.31-.66.54-.83,1.18,2.07-1.2,4.12-2.03,6.31-2.49,1.5-.31,3-.46,4.52-.29.44.05,1.02.02,1.16.64.14.64-.42.77-.82,1.01-.97.59-2.08.95-3.16,1.98,2.67-.65,5.08-.99,7.52-.54.47.09.95.15,1.41.28.4.11.97.1.97.7,0,.53-.47.68-.92.8-1.86.48-3.62,1.24-5.38,2-.22.09-.45.14-.61.49,1.5-.09,2.94-.41,4.38-.02.23.06.47.1.7.17.43.14.88.31.85.86-.03.47-.43.61-.84.73-2.89.82-5.62,2.05-8.33,3.32-.17.08-.34.19-.72.41,1.07.12,1.9.23,2.74.32.45.05.86.17,1.22.44.81.6.84,1.56-.08,1.89-5.68,2.04-10.76,5.45-16.56,7.2-.08.02-.15.05-.23.06-2.42.07-3.85,1.48-5.06,3.42-1.26,2.03-2.72,3.94-4.15,5.86-.42.57-.54,1.11-.44,1.77.4,2.82.41,5.65.23,8.49-.07,1.22-.54,2.08-1.73,2.43-.98.29-1.35.9-1.39,1.91-.18,4.1-1.77,7.84-3.12,11.63-.47,1.33-1.5,1.91-2.45,1.55-1.02-.38-1.34-1.32-.93-2.73.93-3.26,2.48-6.32,2.97-9.71.02-.15.04-.31.08-.6-1.14.32-2.11.81-3.05,1.35-3.06,1.73-6.11,3.54-9.37,4.8-6.57,2.52-13.24,4.66-20.48,4.03-2.19-.19-4.36-.46-6.51-.88-1.24-.24-1.79-1.09-1.41-2.27.77-2.36,1.07-4.84,1.8-7.2.74-2.39,1.78-4.69,2.73-7.02.63-1.55,1.17-3.14,1.73-4.71.84-2.33,2.45-4.22,4.05-6.03,4.92-5.58,10.28-10.73,16.01-15.46,3.9-3.22,8.11-6.04,12.65-8.36,3.01-1.55,5.72-3.66,8.8-5.11,2.34-1.1,4.7-2.15,7.08-3.23-.1-.46-.52-.45-.83-.47-4.21-.22-7.24-2.48-9.72-5.65-.64-.81-1.13-.9-2.08-.46-4.09,1.89-8.32,2.74-12.78,1.4-1.02-.31-1.96-.74-2.58-1.63-.34-.48-.68-.61-1.21-.34-1.35.7-2.67.19-3.92-.26-.92-.33-.96-1.37-.9-2.18.25-3.27,1.11-6.3,3.88-8.44.77-.59,1.3-1.4,1.94-2.11.51-.56.97-1.19,1.81-1.29.41-.05.58-.4.79-.68,1.84-2.44,3.22-5.13,4.27-7.99,1.04-2.85,2.15-5.68,3.56-8.37,2.62-5,6.19-9.17,11.34-11.64,2.64-1.26,5.58-1.86,8.48-2.46,2.25-.47,4.59-.44,6.73-1.48,1.38-.67,2.47-1.62,3.41-2.77,1.21-1.48,2.27-3.04,3.23-4.72,2.01-3.5,4.78-6.41,9.1-6.49,1.65-.03,2.54-.93,3.78-1.43,2.24-.91,4.56-1.38,7.09-1.27-.2-.76-.97-1.23-.93-2.02.02-.27-.06-.61.22-.76.27-.15.52.03.77.18.79.5,1.35,1.22,1.92,2.08.74-.76.97-1.92,2.13-2.29.08.89-.46,1.46-.64,2.13-.08.29-.35.61-.08.89.26.28.58.05.89-.03,2.39-.64,4.76-1.35,7.29-1.04,3.46.41,6.17,2.04,8.04,4.97.37.58.54.81,1.31.7,1.63-.24,3.27-.03,4.77.77,1.23.66,1.25.82.31,1.8-1.93,2-3.36,4.35-4.76,6.73-.11.18-.29.4-.16.66.44.14.45-.26.55-.45,2.36-4.49,5.58-8.16,10.05-10.66.41-.23.79-.62,1.31-.34.54.29.43.81.36,1.28-.63,4.16-2.1,7.86-5.75,10.34-1.25.85-2.69,1.2-4.15,1.44-.32.05-.89-.1-.84.39.05.45.57.24.91.22,4.03-.32,6.64-2.71,8.51-6.03.52-.92.95-1.15,1.81-.56.46.31.99.52,1.46.83,1.9,1.25,3.83,2.44,5.91,3.39,1.59.72,2.68,1.95,3.63,3.36,2.03,3,3.72,6.21,6.05,9.05,2.16,2.63,4.8,4.47,7.82,5.74,2.67,1.13,4.31,2.82,4.86,5.7.4,2.09.94,4.15.61,6.28-.21,1.35.22,2.44.86,3.56,1.46,2.56,2.87,5.12,4.9,7.33,1.62,1.76,1.12,4.85-1.39,5.88-1.87.77-3.8,1.28-5.77,1.55-3.61.49-6.69,2.07-9.53,4.2-3.28,2.46-6.79,3.06-10.85,2.19-2.64-.57-5.43-.81-8.23-.58,1.34.42,2.68.83,4.01,1.27,5.3,1.76,9.23,5.06,11.64,10.18,1.54,3.29,3.36,6.44,4.86,9.75.85,1.87,1.36,3.9,1.95,5.88,1.1,3.67,2.89,7.12,3.7,10.87.68,3.1,2.6,5.64,3.53,8.61.7,2.24,1.34,4.51,2.37,6.64.15.31.25.71.22,1.05-.28,2.79.15,5.59-.11,8.39-.12,1.34-.84,2.37-1.66,3.37-2.56,3.13-6.03,5.21-8.97,7.89-4.2,3.81-8.91,6.85-13.59,9.98-1.88,1.26-3.42,3.01-5.43,4.11-.3.16-.29.54-.38.85-.9,3.23-1.25,6.57-1.96,9.85-.5,2.32-1.68,4.29-2.65,6.38-.2.43-.62.63-1.11.53-.57-.11-.74-.57-.83-1.05-.36-1.84-.62-3.7-.67-5.78-.99,1.1-1.43,2.33-2.05,3.44-1.33,2.41-2.54,4.89-4.23,7.09-.41.53-.74,1.4-1.66,1.04-.8-.32-.63-1.13-.61-1.79.13-3.02.99-5.9,1.73-8.8.04-.15.07-.3.02-.52-1.58,2.42-3.67,4.41-5.3,6.77-.45.66-.95,1.29-1.58,1.79-.45.36-.94.67-1.53.3-.57-.35-.57-.91-.43-1.49.45-1.88,1.27-3.61,2.08-5.35.69-1.46,1.42-2.9,2.08-4.41-2.12,1.99-4.83,3.08-7.09,4.83-.4.31-.82.78-1.37.36-.6-.46-.23-1.02,0-1.51,1.71-3.76,3.91-7.23,6.21-10.64.31-.46.63-.91,1.15-1.65-2.14.99-3.91,2.1-5.88,2.62-4.04,1.05-6.25,4.35-8.95,7.05-.26.26-.39.54-.34.96.18,1.54-.4,2.13-1.97,1.99-3.06-.27-6.13-.34-9.13-1.17-2.51-.69-5.09-1.01-7.68-1.26-2.72-.26-5.26-1.34-7.95-1.73-.75-.11-1.5-.19-2.26-.2-1.38-.03-1.92-.59-1.96-1.99-.12-4.74.92-9.36,1.49-14.03.03-.24.09-.47.12-.71q.33-2.25-1.72-3.4c-.55-.31-.86-.75-.98-1.41-.51-2.84-.65-5.72-.64-8.59,0-1.02-.2-1.43-1.3-1.38-1.37.06-1.71-.44-1.37-1.76.19-.73.29-1.52.64-2.18.51-.96.06-1.22-.72-1.53-1.64-.64-1.69-.99-.89-2.59.69-1.4,1.4-2.77,2.27-4.07.26-.39.24-.72-.06-1.08-.68-.84-1.24-1.77-2.12-2.43-.52-.38-.69-.83-.45-1.45,1.99-5.05,3.46-10.28,5.25-15.41.61-1.74,2.14-2.64,3.47-3.68,2.16-1.7,4.66-2.72,7.35-3.31,1.52-.33,3-.84,4.48-1.32.59-.19,1.07-.19,1.56.21,3.5,2.83,6.43,6.3,10.03,9.03.41.31.79.72.79,1.29,0,3.56,1.48,6.76,2.47,10.07.47,1.57,1.01,3.11,1.53,4.66.25.75.25,1.48-.04,2.22-.36.93-.68,1.88-1.07,2.8-.17.42-.28.65.35.62.67-.03.81.58,1,1.04,1.55,3.68,3,7.4,4.76,10.99.4.82.76,1.67,1.13,2.51.35.81.69,1.58.38,2.53-.2.61.22,1.25.45,1.83,1.11,2.82,2.27,5.62,3.45,8.41.2.48.38.94.48,1.66,1.18-1.25,2.26-2.4,3.33-3.55,2.12-2.28,4.21-4.58,6.36-6.83.47-.49.55-.86.22-1.45-.41-.73-.76-1.5-1.04-2.29-.52-1.49-.02-2.4,1.51-2.75.56-.13,1.07-.32,1.52-.66,1.69-1.28,3.81-1.83,5.43-3.24.67-.58.86-1.11.76-2.02-.66-5.89-.57-11.8-.31-17.71.08-1.84.19-3.67.49-5.49.09-.55-.07-1-.35-1.46-1.54-2.62-2.97-5.3-4.18-8.08-.25-.58-.47-1.19-.64-1.8-.16-.63-.01-1.24.6-1.55.64-.33,1.24-.17,1.73.37,1.02,1.14,1.73,2.49,2.49,3.81,4.25,7.36,8.65,14.64,13.21,21.81.62.97,1.38,1.85,1.9,2.89.64,1.28.53,2.07-.37,3.17-1.71,2.08-4.25,3.07-6.25,4.78-3.96,3.38-8.8,5.3-13.35,7.71-.64.34-.81.51-.4,1.15,1.57,2.49,3.52,4.63,5.75,6.52,2.01,1.71,4.06,3.37,6.04,5.1.59.51.89.53,1.57.04,4.47-3.27,8.48-7.12,13.36-9.88,3.66-2.07,6.62-5.12,9.14-8.54,1.46-1.98,1.4-4.19,1.11-6.43-.81-6.18-2.98-12.01-4.8-17.91-2.04-6.62-3.92-13.32-7.02-19.57-1.45-2.93-3.05-5.79-4.51-8.73-1.91-3.85-5.23-5.96-9.1-7.28-4.8-1.64-9.66-3.07-14.67-3.97-1.02-.18-1.49-.58-1.56-1.68-.09-1.46-.65-1.96-2.07-2.18-1.74-.28-3.49-.52-5.25-.22-.85.14-1.2-.16-1.35-1.01-.51-2.86-.44-5.74-.29-8.61.08-1.48-.25-2.9-.36-4.57-1.93,1.63-4.32,2.11-6.36,3.36-1.92,1.18-4.01,2.09-6.36,1.55-1.98-.46-3.93-1.08-5.63-2.26-.29-.2-.6-.37-1.17-.7.42,1.9.27,3.56.03,5.22-.28,1.94-.59,3.87-1.32,5.7-.27.67-.57,1.03-1.41.83-3.26-.77-6.51-.39-9.75.23-2.84.54-3.66,1.77-2.96,4.53.22.88-.41.85-.83.96-3.06.78-6.1,1.62-9.03,2.77-5.13,2.01-10.12,4.24-14.69,7.44-2.77,1.93-5.64,3.75-8.49,5.58-4.02,2.58-7.48,5.84-11.07,8.94-3.52,3.04-6.72,6.38-9.86,9.78-1.89,2.04-3.58,4.23-4.3,7.08-.52,2.07-1.44,4.06-2.28,6.04-1.17,2.74-1.74,5.63-2.37,8.51-.16.74.03.91.69.96,4.68.4,9.31.42,13.9-.86,4.9-1.37,9.66-3.05,14.12-5.54.73-.41.95-.85.99-1.68.32-6.88-.65-13.72-.54-20.59,0-.37.18-.91-.23-1.09-.38-.17-.7.27-1.02.49-3.45,2.38-6.89,4.77-10.33,7.15-.23.16-.46.32-.71.45-.89.45-1.75.43-2.34-.43-.55-.8-.35-1.65.41-2.24,1.3-1,2.62-1.97,3.99-2.86,4.25-2.77,8.28-5.86,12.43-8.76,1.7-1.19,3.46-2.3,5.24-3.36,1.75-1.04,2.55-.81,3.72.95Zm46.4,35.56c-.86,1.98-1.77,3.54-2.29,5.27-.25.82-.8,1.2-1.64.99-.88-.22-.9-.95-.78-1.64.16-.94.35-1.87.8-2.75.96-1.88,1.84-3.81,2.76-5.72.36-.75.38-1.44.12-2.28-1.41-4.53-3.19-8.97-3.59-13.76-.02-.28-.08-.54-.33-.73-2.84-2.15-5.53-4.45-7.83-7.19-1.02-1.22-2.25-1.67-3.78-.84-.41.22-.91.31-1.38.39-3.49.6-6.41,2.35-9.17,4.46-.41.31-.57.71-.7,1.2-1.21,4.51-2.44,9.03-4.65,13.18-.65,1.22-.84,2.04.38,2.96.58.44.91,1.2,1.38,1.8.64.81.59,1.56,0,2.4-.83,1.17-1.62,2.38-2.24,3.68-.22.47-.24.74.31,1.03,2.08,1.11,2.07,1.13,1.27,3.33-.07.19-.12.38-.21.56-.31.65-.2.97.6,1.09,1.05.16,1.89.59,1.79,1.94-.23,2.93.29,5.82.48,8.72.02.35.07.72.45.92,1.64.85,3.16,2.15,5.23.96.7-.4,1.61-.42,2.41-.69,3.1-1.02,6.27-1.88,8.39-4.72,1.46-1.95,3.12-3.75,4.72-5.59.58-.67,1.34-1.21,2.18-.5.86.73.36,1.47-.24,2.17-1.46,1.69-2.87,3.42-4.33,5.11-1.49,1.72-3.04,3.3-5.25,4.23-3.02,1.27-6.23,1.73-9.35,2.52-.74.19-.98.5-1.03,1.18-.11,1.43-.27,2.86-.42,4.29-.33,2.98-.67,5.96-1,8.93-.06.53-.11.99.67,1.11,5.12.79,10.13,2.15,15.28,2.81,2.6.33,5.14,1.05,7.81,1.03,1.19,0,1.12-.45.89-1.22-.72-2.36-1.11-4.82-1.95-7.15-.22-.61-.37-1.26-.01-1.86.8-1.33,1.5-2.72,2.35-4.03,2.2-3.42,4.55-6.76,6.25-10.48.51-1.11.95-2.12.3-3.48-2.04-4.25-3.7-8.66-4.63-13.65Zm-16.07-106.92c-.77.8-.93,1.8-1.02,2.83-.19,2.26-.72,4.5-.52,6.8.58,6.4,2.45,12.43,5.11,18.24.61,1.32,1.4,2.59,2.47,3.49,2.71,2.3,5.84,3.84,9.33,4.67.91.22,1.78.23,2.56-.19,3.2-1.7,6.54-3.17,9.33-5.55.53-.45.89-.96,1.13-1.64,1.47-4.19,3.32-8.26,5.71-11.97,1.3-2.02,2.01-3.99,2.23-6.28.16-1.58.35-3.15.99-4.65.58-1.35.97-2.79,1.31-4.22.17-.71.22-.76.85-.34,4.83,3.24,9.67,2.66,14.66-.14-.16-.07-.27-.1-.37-.16-.93-.66-.82.59-1.35.74-1.07.3-2.1.78-3.18,1.03-3.38.79-6.47.06-9.35-1.84-.53-.35-1.02-.88-1.51-.9-.63,2.19-.87,4.35-1.79,6.35-.11.24-.34.44-.55.63-1.13,1.02-2.34,1.95-3.69,2.63-3.28,1.65-6.84,2.09-10.38,1.52-2.61-.41-5.23-.54-7.83-.92-.31-.04-.61-.18-.77.29-.65,1.96-1.34,3.92-2,5.88-.16.47-.04.87.42,1.12.92.49,2.27-.06,2.6-1.08.09-.28.16-.54.46-.64.33-.1.5.13.68.36.61.77,1.18.71,1.8-.2-.24-.06-.47-.1-.69-.17-.36-.12-.65-.29-.63-.75.03-.56.47-.64.84-.66.69-.04,1.4.06,1.73.8.3.66.04,1.22-.43,1.74-.47.52-1.04.75-1.71.7-.7-.06-1.3.13-1.93.45-1.76.89-2.81.62-4.31-.94-.1-.1-.27-.17-.41-.19-.88-.1-1.28-.62-1.2-1.47.08-.94.6-1.6,1.56-1.68.5-.04.8-.11.97-.63.32-.98.7-1.95,1.06-2.92-.33-.3-.75-.22-1.14-.25-2.95-.18-5.9-.27-8.83-.55-2.28-.21-2.73-.9-2.67-3.23.05-2.04.22-4.06.44-6.1Zm32.86,154.11c.09.06.17.11.26.17,2.4-2.97,4.82-5.94,6.87-9.18.31-.49.67-1.13,1.41-.79.7.33.51,1,.35,1.58-.63,2.18-1.3,4.36-1.9,6.55-.37,1.35-.83,2.69-.92,4.42.31-.45.47-.62.57-.83,1.69-3.7,4.03-7.07,5.43-10.92.2-.54.58-.89,1.18-.81.6.08.85.54.88,1.11.02.28.04.56.05.84.1,1.95.05,3.9.32,5.85.3-.07.27-.31.34-.48,1.64-4.36,1.93-9.04,3.24-13.48.23-.79.15-1.54-.68-2.27-3.43-3.03-7.28-5.62-9.96-9.44-.47-.67-.73-.26-1.06.09-3.61,3.79-7.23,7.56-10.81,11.37-.69.73-1.46,1.42-1.91,2.37.33.18.53-.01.74-.1,2.66-1.05,5.04-2.56,7.36-4.22.51-.36,1.12-.85,1.7-.21.54.58.05,1.09-.33,1.57-1.68,2.18-3.24,4.45-4.69,6.79-1.18,1.91-2.4,3.8-3.47,6.09,1.36-.75,2.44-1.4,3.4-2.23,1.61-1.38,3.21-2.76,4.82-4.13.43-.37.91-.57,1.4-.16.47.39.26.86.02,1.3-.88,1.7-1.77,3.39-2.63,5.1-.67,1.34-1.31,2.69-1.96,4.04Zm-60.27-68.57c1.61-2.18,3.02-4.1,4.44-6.01.64-.87,1.24-1.82,2.41-2.03,6.13-1.09,11.35-4.47,17.05-6.71-1.85-.27-3.61.05-5.33.7-.44.17-.88.34-1.15-.18-.26-.51.1-.83.5-1.06,1.22-.69,2.42-1.41,3.68-2.01,2.24-1.07,4.52-2.07,6.78-3.09-3.03.37-5.97,1.06-8.81,2.16-.54.21-1.07.48-1.48-.15-.42-.66.11-1.04.52-1.4.23-.21.54-.34.82-.49,2.51-1.31,5.09-2.46,7.7-3.56.8-.34,1.72-.47,2.52-1.17-1.04-.03-1.91.09-2.76.27-3.29.71-6.47,1.72-9.38,3.48-.48.29-1,.44-1.4-.08-.41-.54-.08-.96.34-1.34.6-.53,1.23-1,1.92-1.43,1.82-1.13,3.61-2.3,5.41-3.46-1.77.19-3.48.58-5.03,1.39-2.65,1.4-5.31,2.79-7.57,4.81-.43.38-.91.59-1.38.13-.46-.45-.17-.88.16-1.26.32-.36.65-.71.97-1.06,1.67-1.8,3.34-3.59,5.01-5.39-.58.13-1.09.36-1.48.72-3.45,3.15-7.37,5.77-10.45,9.32-1.94,2.23-4.24,4.13-5.89,6.62-.22.33-.53.59-.38,1.06,1.13,3.54,1.62,7.22,2.25,11.24Zm-2.96,9.39c.09-1.95-.33-4.04-.54-6.14-.46-4.65-1.07-9.27-2.35-13.79-.21-.75-.37-.88-1.09-.46-1.8,1.05-3.35,2.45-5.1,3.56-.49.31-.7.7-.56,1.3.29,1.26.23,2.54.27,3.82.18,5.83,1.12,11.61,1.04,17.45-.01.81.35.7.88.45,1.59-.74,3.18-1.5,4.8-2.16,2.62-1.07,2.64-1.04,2.64-4.03Zm94.23-56.43c.2-.7.34-1.24.52-1.76.53-1.55,1.32-2.06,2.89-1.7.64.15.7-.23.97-.57,1.05-1.34,2.8-1.84,3.87-3.19.09-.12.39-.14.57-.11.63.1.92-.13,1.09-.76.19-.73.71-1.48,1.48-1.33,1.29.26,1.35-.8,1.85-1.39.26-.31.21-.71.02-1.02-.28-.45-.52.05-.78.1-.36.07-.71.09-1.06-.06-.29-.13-.53-.13-.68.22-.45,1.01-1.21,1.22-2.27,1.03-.59-.1-1.28,0-1.82.26-.19.09-.04.88-.08,1.35-.09,1.11-.63,1.82-1.8,1.8-.53,0-.73.17-.97.63-.44.87-1.25,1.21-2.11.73-.6-.33-.69-.14-.86.36-.3.88-.92,1.27-1.86,1.06-.22-.05-.44-.22-.67-.01-.99.88-1.74.31-2.5-.5-.33,1-1.32.91-1.99,1.34-1.54,1-1.78,1.02-2.85-.39-1.1,1.41-1.39,1.42-2.72.94-1.04-.37-2.29-.25-2.66-1.84-.6,1.14-.69,2.63-2.16,2.31-1.74-.37-1.18-2.05-1.42-3.4-.17.28-.25.4-.32.53-.94,1.76-1.36,1.83-2.9.54-.09-.07-.18-.15-.29-.19-2.07-.67-2.2-.86-1.95-2.97.05-.44.14-.87.19-1.3.05-.39.22-.8-.07-1.24-1.34,2.56-1.64,2.9-2.49,2.61-1.19-.39-1.09-1.41-1.01-2.45-.89.98-.89.98-2.38,1.04-.63.03-.91.44-.94,1.01-.03.61,0,1.22,0,1.97q1.54-1.25,2.95-.12c.14.11.36.14.55.16.85.07,1.35.57,1.43,1.36.13,1.29,1.43,1.67,2.06,1.69,1.4.05,1.55.87,1.81,1.79.1.36-.08.78.24,1.15,1.12-.74,2.22-1.33,3.04.37.15.32.38.06.57-.07,1.64-1.15,2.15-1.02,3.16.92.51-1.16,1.83-.83,2.56-1.61,1.12-1.2,2.17-1.13,2.99.25.36.61.51.59,1,.14,1.11-1.03,1.61-1.03,2.88-.03.46.36.58.09.83-.2,1.05-1.23,2.04-1.3,3.29-.24.24.2.46.43.83.79Zm-41.58,87.38c-1.77,3.83-4.04,7.12-6.29,10.39-1.22,1.78-1.82,3.37-.87,5.49.63,1.39.82,2.97,1.24,4.62,1.81-1.68,3.46-3.22,5.13-4.76.64-.59,1.27-1.29,2.3-.83.21.09.4-.01.51-.19.96-1.59,2.21-2.98,3.51-4.48-1.81-.17-2.32-1.44-2.79-2.67-.93-2.45-1.8-4.93-2.75-7.57Zm-28.56-97.07c-.34,1.04-.76,1.81-1.82,1.55-1.1-.27-1.16-1.14-.99-2.11.22-1.27.36-2.55.54-3.83-.85,1.48-1.45,3.02-2.07,4.56-.34.83-.91,1.32-1.87,1.03-.94-.28-1.03-1.05-.91-1.83.09-.57.32-1.11.52-1.75-1.88,1.1-2.53.67-2.77-1.84-.51.7-.92,1.32-1.38,1.9-.48.6-1.08,1.02-1.87.63-.8-.38-.97-1.05-.79-1.91.14-.67.59-1.28.48-2.06-1.74,1.45-1.75,1.46-4.18.06-.99-.57-.87-1.47-.47-2.44-.83.17-1.48.13-1.91-.56-.73-1.17.38-1.9.7-2.84-1.2-.26-1.94-.84-1.54-2.18.07-.23-.03-.35-.16-.52-1.09-1.34-1.09-1.55.12-2.85.48-.51.46-1.09-.21-1.09-1.58,0-2.02-.8-1.83-2.32-2.26,1.62-3.69,3.7-5,5.89,1.07-.85,2.04-1.79,3.05-2.7.47-.42,1.04-.62,1.66-.28.63.34.59.98.45,1.49-.23.83-.6,1.54.36,2.23.43.31.13.96-.15,1.43-.35.59-.85,1.09-1.08,1.85.36-.22.64-.38.9-.56.46-.31.91-.3,1.31.09.44.43.41.94.07,1.41-.21.29-.49.52-.74.78-1.06,1.09-1.83,2.34-2.21,4.06,1.02-.78,1.85-1.45,2.72-2.05.52-.36,1.16-.75,1.72-.11.57.65.05,1.16-.34,1.68-.71.93-1.15,1.98-1.61,3.29,1.5-.7,2.73-1.27,3.96-1.85.56-.26,1.3-.57,1.62.07.55,1.09,1.72,1.28,2.52,1.98.39.34.46,1.01,1.16,1.06.99.07,1,.76.72,1.47-.16.39-.4.74-.44,1.19.55.02.96-.68,1.27-.37.91.9,1.97.22,2.89.44.78.19,1.39.85,2.33.81.55-.03.63.63.71,1.1.07.36-.18.77.2,1.17.09-.22.14-.36.2-.51.25-.62.6-1.12,1.37-1.13.86-.01,1.16.58,1.42,1.23.16.41.29.83.44,1.24.28.79.35,1.67,1.07,2.44.26-1.33.41-2.52.73-3.66.46-1.64,1.71-1.94,2.98-.81.11.1.24.18.43.32.35-1.13.86-2.05,1.81-2.66.49-.31.38-.75.16-1.16-.14-.25-.27-.79-.6-.57-1.26.84-1.96.18-2.59-.95-.22,1.12.31,2.49-1.2,2.81-1.13.24-1.48-.69-1.84-1.78Zm55.08,63.46c-.06.42-.11.62-.11.81.02,4.07.02,8.13.06,12.2.02,1.87-.09,3.75.2,5.61.12.78.27,1.12,1.05.49,2.05-1.64,4.13-3.24,6.22-4.83.62-.47.57-.86.18-1.49-1.81-2.91-3.57-5.85-5.33-8.79-.75-1.26-1.19-2.7-2.27-4Zm-.05-76.18c-.13.48-.04.94-.29,1.31-.23.35-.56.58-1.01.51-.65-.11-1.07-.48-1.25-1.13-.28-1-.32-2.08-1.03-3.31.11.96.21,1.59.25,2.22.04.59-.05,1.17-.77,1.29-.71.12-1.15-.23-1.3-.92-.23-1.04-.44-2.07-.68-3.2-.26.72-.15,1.66-1.16,1.66-1.11,0-.99-1.02-1.24-1.76-.39.43-.77.69-1.36.7-.67,0-.54.73-.59,1.13-.06.44.43.37.72.34.82-.1,1.64.14,1.65.96.01,1.26.49,2.08,1.36,2.92.37.36.49.55.98.34.4-.17.83-.27,1.26-.37.66-.15,1.25.01,1.41.73.15.66.42.93,1.1.81.16-.03.43.1.52.24.48.69.84.36,1.3-.05.56-.48,1.2-.55,1.87-.11.95.63,2,.06,2.97.03.39-.01,1.42-.19,1.73-.94.55-1.33,1.93-1.94,2.63-3.15.19-.33.7-.39,1.09-.4.47,0,.72-.13.79-.65.17-1.2,1.15-2.05,1.89-2.73.67-.62,1.04-1.29,1.51-1.98.41-.61.1-1.18-.28-1.47-.47-.37-.85.11-1.06.56-.18.37-.39.79-.81.82-1,.09-.83.61-.63,1.28.27.89.09,1.68-.85,2.09-.4.18-.58.41-.7.85-.33,1.18-1.23,1.51-2.31.95-.27-.14-.52-.49-.86-.32-.92.44-1.61.03-2.39-.83.2.87.38,1.44.46,2.03.13.91-.48,1.72-1.29,1.62-1.46-.19-3.15-.05-3.68-2.09Zm-48.04-17.64c3.91-1.31,7.8-1.93,11.71-2.31,4.32-.42,8.66.45,13.02-.15,3.29-.46,6.61-.06,9.9.41.39.06,1.02.17.87-.39-.29-1.06.26-2.08,0-3.36-.34.76-.57,1.3-.81,1.84-.27.62-.83.89-1.35.56-.71-.45-1.49-.74-2.17-1.13-.85-.48-1.82.32-2.47-.52-.09.07-.21.13-.25.22-.47.94-1.03.59-1.77.28-.69-.3-.73,1.2-1.63.86-.04-.01-.09-.01-.11-.04-.86-1.19-1.9.57-2.78-.17-1.11,1.28-1.73.37-2.34-.66-.16.23-.25.35-.32.48-.33.59-.6,1.35-1.44,1.19-.77-.14-.77-.92-.92-1.53-.27-1.1-.57-2.2-.87-3.36-.36.17-.42.45-.55.68-.76,1.35-1.44,2.77-2.45,3.96-.76.89-1.56.91-2.13-.08-.47-.81-.68-.4-1.1-.03-.88.78-1.42.63-1.88-.47-.07-.17-.13-.35-.21-.55-.83.33-1.29,1.24-2.2,1.23-1.34-.01-.98-1.16-1.16-2-1.18.59-1.83,1.95-3.28,1.87-.06,0-.15.18-.19.29-.35.91-.7,1.83-1.09,2.86Zm-3.22,18.26c-.21-1.66-.56-3.26-.61-4.89-.02-.75-.25-1.23-1.05-1.46-.76-.21-1.35-.71-1.54-1.75-.63,1.17-1.59.87-2.43,1.02-1.32.22-1.84-.19-1.83-1.54,0-.33-1.32-1.55-1.47-1.37-.64.74-1.69,1.07-2.14,2.02.41,0,.73-.15,1.06-.22.9-.2,1.68.61,1.42,1.5-.08.29-.25.62-.48.8-.75.59-.08,1.07.2,1.38.43.49.52-.22.72-.42.7-.68,1.37-.97,2.13-.1.12.14.31.27.49.29,1.2.13,1.6,1.96,3.13,1.46.2-.07.44.44.42.78-.12,1.49,1.41,1.58,1.99,2.5Zm35.12-30.28c-.18,1.74-.66,1.94-2.19,1.27-1.13-.5-2.33-1-3.53-.03-.25.2-.64.21-.92.06-1.38-.74-2.55-.12-3.71.53-.3.16-.6.27-.91.16-1.11-.41-2.34-.64-2.82-1.99-.13-.37-.35-.81-.79-.96-.97,1.13-1.62,2.75-3.6,2.04-.41-.15-.68.08-.92.38-.29.37-.64.54-1.15.46-1.06-.17-2.14-.11-3.13-.71-.56-.34-.74.42-1.11.65-.16.1-.35.32-.19.49.31.33.68-.05.99-.01,1.08.13,2.16.56,3.21-.12.06-.04.22.07.33.11.41.14.81.37,1.23.39,1.02.05,2.1.75,2.97-.57.65-.99,1.47-.95,1.94.31.16.42.44.13.69.08,1.23-.24,2.49,0,3.71.03.85.02,1.55.27,2.21-.44.14-.15.45-.21.67-.2,1.57.12,3.14-.42,4.72.26,1.15.5,2.31.03,3.45-.54-.18-.59-.51-1.15-1.16-1.67Zm-47.58,16.76c0,.72.99,1.6,1.63,1.44.64-.16,1.17-.04,1.65.4.14.13.29.48.5.06.13-.25.26-.47-.18-.62-1.02-.36-1.17-1.09-.7-2,.11-.21.3-.45-.04-.59-.84-.35-1.62.1-2.42.24-.63.11-.27.74-.46,1.07Zm36.19.92c.44.4.31,1.17.91,1.36,1.37.45,2.64,1.15,4.21.96.93-.11,1.78-.93,2.78-.37.08-.83,1.09-.91,1.32-1.64.1-.31.7-.57.37-.88-.39-.37-.72.15-.93.43-.96,1.26-2.29,1.65-3.77,1.76-1.84.14-3.43-.48-4.9-1.63Zm-9.3-.2c-2.98,1.85-5.75,2.05-8.22-.93.66,1.68,1.99,2.41,3.53,2.78,1.53.37,4.11-.65,4.69-1.85Zm-37.15,2.19c-.88.31-1.73.7-2.28,1.52.83-.4,1.71-.7,2.28-1.52Z"/>
  <path d="m51.14,199.21c2.7.94,5.32,1.77,8.03,2.26.55.1,1.09.24,1.63.39.55.15.93.48.98,1.07.04.55-.28.87-.75,1.11-1.37.69-2.22,1.92-3.15,3.06-.52.63-.32.9.38,1.17,1.48.58,2.96,1.19,4.26,2.16.53.4.86.87.77,1.51-.08.61-.65.74-1.14.91-2.14.72-4.09,1.98-6.38,2.29-.72.1-.79.56-.67,1.22.53,2.79,1.26,5.52,2.07,8.24.11.38.21.78.2,1.17-.02.53-.37.87-.88,1-.63.17-1.08-.13-1.46-.59-2.41-2.88-4.84-5.73-7.21-8.65-1.6-1.97-1.55-2.01-3.42-.26-.79.73-1.58,1.47-2.38,2.18-.41.36-.89.56-1.43.28-.53-.28-.62-.79-.64-1.33-.05-2.16.19-4.3.55-6.43.12-.73.09-1.01-.8-.86-1.41.22-2.84.41-4.29.27-1.44-.14-1.85-.74-1.25-2.06.88-1.94,2.11-3.67,3.47-5.29.74-.87.68-1.28-.36-1.81-1.05-.55-2-1.31-2.95-2.04-.96-.74-.84-1.62.33-1.89,2.01-.47,4.03-1.04,6.14-.83.44.04.73.13.77-.51.13-2.31.35-4.62.51-6.93.04-.6-.03-1.29.71-1.49.8-.22,1.13.44,1.44.99.89,1.6,1.82,3.19,2.6,4.85.42.9.73.86,1.45.31,1.11-.84,2.33-1.53,3.51-2.29.57-.37,1.2-.63,1.76-.12.63.58.24,1.25-.04,1.87-.77,1.69-1.56,3.39-2.32,5.05Z"/>
  <path d="m119.54,140.14c.43-.08.77-.16,1.12-.19.38-.03.85-.24,1.04.27.18.46-.04.9-.42,1.15-.86.57-1.73,1.17-2.66,1.61-3.08,1.46-6.33,2.12-9.74,2.08-2.61-.03-4.44-1.58-6.27-3.14-2-1.71-3.37-3.94-4.83-6.08-.4-.58-.6-.79-1,0-2.35,4.72-5.69,8.56-10.14,11.43-.36.23-.64.6-.93.92-.82.93-1.41.93-2.05-.11-.33-.53-.6-1.14-.71-1.74-.12-.66.07-1.33.92-1.39,1.34-.1,2.23-.9,3.13-1.79.99-.98,2.12-1.82,3.21-2.69,1.95-1.56,3.3-3.55,4.37-5.78.36-.75.21-.93-.59-1.02-2.61-.29-5.27-.37-7.8-1.21-3.06-1.03-6.13-2.04-9.08-3.37-1.21-.54-2.08-1.49-2.77-2.57-.66-1.03-.33-2.2.68-2.9,1.46-1.02,3.06-1.5,4.85-1.42.96.04,1.92.03,2.88,0,2.22-.07,4.25.36,6.02,1.84,1.53,1.28,3.56,1.79,5.1,3.11.67.58,1.29,1.19,1.86,1.86.35.41.65.53,1.15.03,2.75-2.78,6.27-4.03,9.95-4.93,1.08-.27,2.15-.55,3.22-.86,2.11-.6,4.29-.38,6.39.21,1.01.28,1.45,1.51,1.08,2.7-.6,1.95-1.84,3.42-3.59,4.46-3.74,2.22-7.68,3.74-12.14,3.31-.18-.02-.37.03-.77.07,1.36,1.9,2.58,3.65,4.8,4.33,1.98.61,3.96,1.26,5.95,1.83,2.22.63,4.35.51,6.23-1.03.09-.08.19-.16.29-.21.59-.27,1.21-1.07,1.78-.57.63.56-.46,1.03-.54,1.79Zm-11.81-11.76c-2.53.6-4.88,1.58-7.12,2.84,2.58-.44,4.96-1.39,7.12-2.84Zm-19.57.13c-1.21-.75-2.37-1.58-4.05-2,1.03,1.72,2.49,1.96,4.05,2Z"/>
  <path d="m86.3,248.17c.19-2.15.38-4.28.58-6.42.05-.57.12-1.15.83-1.28.7-.13,1.02.37,1.27.87.76,1.54,1.5,3.08,2.21,4.64.32.7.57.87,1.3.34,1.25-.92,2.59-1.72,3.93-2.51,1.1-.65,1.79-.21,1.71,1.08-.05.91-.22,1.82-.39,2.72-.16.82,0,1.21.95,1.01,1.34-.28,2.7-.28,4.05-.16.6.06,1.08.3,1.28.9.2.57-.21.9-.56,1.22-1.24,1.12-2.48,2.25-3.76,3.33-.5.43-.43.71-.02,1.15,1.45,1.6,2.87,3.22,4.11,4.99.46.65,1.01,1.34.5,2.18-.48.79-1.32.82-2.13.78-1.72-.09-3.41-.41-5.05-.91-.64-.19-1-.06-1.37.51-.93,1.46-1.63,3.02-2.26,4.62-.24.62-.38,1.38-1.28,1.36-.85-.02-1.07-.74-1.33-1.36-.51-1.19-.59-2.48-.85-3.73-.15-.77-.43-.9-1.12-.43-1.59,1.07-3.18,2.14-4.99,2.82-.69.26-1.42.5-2.03-.08-.68-.65-.32-1.39-.02-2.1.72-1.73,1.42-3.47,2.02-5.25.33-.98,0-1.25-.88-1.21-1.45.07-2.85-.26-4.27-.45-.57-.08-1.04-.2-1.16-.82-.12-.59.23-1,.69-1.29,1.08-.68,2.16-1.37,3.27-1.99.59-.33.68-.61.33-1.21-.65-1.14-1.19-2.34-1.8-3.51-.23-.44-.49-.86-.18-1.34.32-.5.83-.61,1.37-.52,1.44.23,2.73.86,3.99,1.56.33.19.61.53,1.08.46Z"/>
  <path d="m122.48,172.28c-1.87-.44-3.63-.81-5.37-1.27-.77-.2-1.13.03-1.52.7-1.37,2.41-2.28,5.01-3.3,7.56-.12.3-.21.6-.34.89-.19.43-.52.73-1.01.72-.55,0-.89-.35-1-.87-.33-1.52-.64-3.04-.95-4.57-.1-.47-.17-.94-.25-1.41-.41-2.32-.01-1.97-2.37-1.68-1.55.19-3.08.49-4.65.34-1.51-.14-1.9-.77-1.25-2.16.74-1.58,1.98-2.8,3.09-4.1.52-.6.64-.86-.18-1.27-1.36-.67-2.66-1.46-3.99-2.19-.47-.26-.93-.5-.92-1.14.02-.7.6-.76,1.08-.94,1.09-.41,2.19-.75,3.34-.89.59-.07.87-.33.81-1.02-.15-1.75-.2-3.51-.29-5.26-.03-.57-.03-1.15.58-1.45.57-.29.99.08,1.41.38.96.66,1.76,1.51,2.52,2.38.52.6.79.61,1.36-.02,1.49-1.66,3.09-3.24,4.66-4.83.42-.43.88-.88,1.56-.66.73.24.73.93.77,1.5.11,1.47.17,2.95.19,4.43.01.69.2.94.92.73,1.44-.42,2.93-.23,4.4-.29.51-.02.83.19,1.03.64.22.49.05.85-.35,1.14-1.43,1.06-2.43,2.54-3.72,3.73-.5.47-.53.82-.13,1.41,1.61,2.38,3.15,4.81,4.71,7.23.31.49.56,1,.2,1.56-.27.42-.66.69-1.07.66Z"/>
  <path d="m140.12,233.57c-1.56-.19-2.99-.37-4.41-.53-.44-.05-.9-.07-1.12-.54-.25-.52.19-.79.45-1.12.95-1.22,2.3-1.86,3.67-2.39,1.12-.44,1.14-.93.54-1.79-.41-.59-.75-1.22-1.1-1.85-.21-.37-.29-.77.02-1.12.27-.3.64-.29,1-.19.73.2,1.48.35,2.19.61.68.26,1.04.06,1.23-.6.29-.95.58-1.9.88-2.86.13-.43.3-.84.85-.87.51-.02.67.37.84.73.37.79.73,1.59,1.08,2.4.2.46.46.59.93.35.96-.49,1.94-.93,2.91-1.41.45-.22.92-.38,1.33.03.38.38.33.85.19,1.35-.33,1.16-.86,2.23-1.44,3.28-.35.63-.4,1.03.36,1.39,1.4.67,2.75,1.45,4.13,2.17.55.29,1.13.58,1.03,1.3-.11.76-.76.97-1.41,1.09-1.29.24-2.59.49-3.89.69-.72.11-.74.41-.4.96.67,1.08,1.29,2.2,1.96,3.29.28.45.42.89.05,1.31-.38.45-.79.15-1.18-.04q-1.99-.97-2,1.27c0,.84,0,1.68-.07,2.51-.06.66-.08,1.47-.95,1.61-.84.13-1.3-.45-1.59-1.17-.72-1.77-1.5-3.53-2.12-5.33-.31-.91-.68-.97-1.44-.58-1,.5-2.03.94-3.06,1.37-.44.18-.91.31-1.38.35-.5.05-1.08.16-1.41-.38-.35-.57.09-1,.38-1.4.93-1.28,1.91-2.53,2.95-3.9Z"/>
  <path d="m77.06,233.35c-6.01-1.59-10.83-4.48-14.29-9.39-.35-.5-.74-1.18-.14-1.74.5-.46,1.09-.17,1.51.23,3.86,3.72,8.33,6.7,12.36,10.21.15.13.25.3.56.69Z"/>
  <path d="m77.21,237.99c-3.06-.7-6.22-1.74-9-3.7-1.01-.71-2.07-1.37-2.9-2.3-.32-.36-.67-.74-.29-1.26.41-.56.92-.4,1.38-.11,3.61,2.27,7.49,4.05,11.21,6.13.38.21.87.49.79.95-.07.39-.6.27-1.18.3Z"/>
  <path d="m117.24,181.63c-.39,2.96-.5,6.32-1.18,9.6-.2.97-.61,1.89-.94,2.84-.09.27-.21.57-.56.52-.37-.05-.33-.41-.35-.67-.14-2.2.28-4.37.36-6.56.11-2.89.93-5.66,1.49-8.48.08-.41.17-1.03.68-.98.52.05.45.69.48,1.09.06.75.02,1.51.02,2.64Z"/>
  <path d="m86.64,237.32c-1.32-.41-1.81-1.62-2.85-2.19-.47,1.02-.01,2.29-1.06,3.22-.32-1.07-.03-2.07-.22-3.12-.8.33-1.19,1.14-2.04,1.35-.1-.88.47-1.38.96-1.84.75-.7.33-.96-.32-1.22-.3-.11-.63-.16-.89-.33-.3-.2-.28-.6.1-.58,1.31.06.66-.49.37-.99-.13-.23-.37-.45-.03-1.05.45.56.82,1.07,1.24,1.54.52.59.96.71,1.16-.27.07-.34.26-.66.44-1.08.63,1.22,1.04.02,1.63-.1.23.72-.24,1.16-.55,1.6-.43.61-.4.97.37,1.19.46.13.89.35,1.32.55.29.14.6.38.53.72-.09.41-.51.27-.81.29-.23.02-.46,0-.77,0,.34.82,1.19,1.25,1.42,2.31Z"/>
  <path d="m63.02,232.16c-.33.52-.79.27-1.09.54.25.48.51.97.75,1.47.14.31.45.7,0,.94-.37.2-.67-.13-.9-.41-.4-.49-.8-.99-1.24-1.54-.48.4-.43.98-.6,1.47-.11.31-.07.83-.56.79-.51-.04-.36-.53-.39-.86-.03-.3,0-.61,0-.92-.49-.05-.77.31-1.14.43-.29.1-.55.14-.76-.12-.23-.29.01-.5.13-.75.25-.54,1.34-.55,1.05-1.22-.16-.38-1.04-.45-1.59-.68-.1-.04-.17-.15-.35-.3.94-.39,1.75.07,2.67.15.19-.6-.36-.88-.53-1.3-.14-.34-.61-.72-.17-1.05.41-.31.7.2,1,.43.19.14.33.35.5.52.11.12.22.23.33.34.66-.77,1.37.29,2.05-.05.21-.11.49-.08.62.18.11.21,0,.45-.15.53-1.25.75-.73,1.14.38,1.42Z"/>
  <path d="m119.69,184.25c-.2,1.75-.09,3.5-.38,5.25-.09.52-.29.98-.47,1.46-.16.4-.34.76-.84.63-.47-.12-.59-.54-.57-.94.2-3.61.32-7.23,1.24-10.76.08-.32.14-.84.58-.78.5.06.45.57.45.96,0,1.39,0,2.79,0,4.18Z"/>
  <path d="m93.88,240.54c-.24-.05-.6.09-.69-.27-.11-.44.29-.64.57-.82,2.34-1.52,4.7-3,7.15-4.32.98-.53,1.95-1.08,2.94-1.6.43-.23.99-.78,1.37-.26.39.54-.32.88-.7,1.19-1.84,1.48-3.94,2.55-5.95,3.77-1.02.62-2.06,1.21-3.09,1.82-.49.29-1.01.48-1.6.49Z"/>
  <path d="m60.41,175.72c.22.8-.23,1.3-.38,1.86-1.24,4.48-2.81,8.88-3.43,13.52-.06.48-.18,1.03-.86.88-.67-.14-.51-.68-.44-1.16.58-4.33,2.07-8.41,3.51-12.5.33-.93.72-1.84,1.6-2.59Z"/>
  <path d="m60.31,168.25c-.78,2.53-1.57,5.07-2.35,7.6-.36,1.18-.68,2.37-1.05,3.54-.17.51-.35,1.24-1.07,1-.63-.21-.36-.87-.24-1.36.88-3.49,2.33-6.76,3.86-10,.15-.31.38-.59.57-.88.09.03.18.06.28.1Z"/>
  <path d="m61.52,218.09c.52-.1.88-.61,1.46-.46-.06.57-.72.71-.9,1.27.44.18.87.35,1.44.58-1.54.37-.36,1.26-.42,1.93-.78.12-.8-.73-1.34-.88-.08.65.18,1.35-.29,2.05-.8-.7-.36-1.76-.84-2.54-.71.21-1.19,1.03-2.08.93.04-.87,1.04-.99,1.24-1.68-.08-.06-.13-.12-.2-.15-.45-.18-1.36.15-1.33-.42.04-.75.92-.49,1.48-.52.15,0,.29-.03.43-.04,0-.13.01-.21,0-.28-.09-.46-.8-.78-.52-1.24.36-.58.8.92,1.31.08.18.46.36.92.55,1.39Z"/>
  <path d="m122.24,174.95c.84.07.73,1.46,1.73.61.25-.21.22.36.28.6.18.69-.62,1.92.99,1.82-.04.6.5.82.78,1.21.15.22-.03.4-.25.41-.31.01-.62-.04-.93-.07-.25.61.42,1.16,0,1.83-.42-.53-.88-.92-1.3-.03-.56-.51-.25-1.12-.4-1.63-.27-.92-.97.05-1.4-.33.01-.3.22-.52.52-.68.14-.07.26-.17.38-.26-1.29-1.13,1.38-2.34-.41-3.46Z"/>
  <path d="m100.49,145.91c.21.08.57.17.87.35,2.06,1.21,4.1,2.43,6.15,3.65.27.16.5.39.75.59.26.21.31.47.12.73-.17.23-.44.18-.65.06-2.53-1.42-5.06-2.84-7.57-4.28-.26-.15-.51-.43-.38-.8.09-.27.33-.32.72-.31Z"/>
  <path d="m91.17,151.85c2.56.79,5.1,1.62,7.23,3.33.28.23.78.54.5.96-.23.35-.67,0-.96-.14-1.99-1.05-4.07-1.82-6.23-2.41-.38-.1-.74-.3-1.08-.5-.29-.17-.48-.46-.35-.81.15-.4.48-.5.88-.42Z"/>
  <path d="m104.1,231.24c-.15.23-.22.43-.36.56-1.74,1.6-3.58,3.04-5.82,3.89-.29.11-.67.5-.93.01-.21-.39.18-.67.39-.92.75-.9,1.75-1.5,2.75-2.08,1-.58,2-1.16,3.01-1.72.36-.2.74-.24.95.25Z"/>
  <path d="m52.81,183.35q.65.53,1.31-.08c.36.33.04.76.19,1.18.63.03.99-.74,1.65-.66.2.41-.18.54-.35.65-.79.51-1.31.98.16,1.54-.62.32-1.4.48-.81,1.3.13.18.25.48-.02.64-.34.19-.49-.11-.63-.35-.12-.2-.12-.47-.43-.59-.24.42-.11,1.01-.62,1.39-.6-.68.07-1.42-.11-2.12-.61-.1-.92.59-1.63.58.67-1.09,1.02-2.25,1.29-3.48Z"/>
  <path d="m108.47,190.99c1.14-.18,1.6.43,1.74,1.44.01.11.11.29.18.29,1.96.08.68,2.26,1.92,2.82-.78.07-.95-.77-1.59-.89.03.46.06.92.1,1.46-.7-.39-.59-1.16-1.02-1.65-.23.12-.45.27-.7.36-.13.05-.34.03-.44-.05-.49-.42.86-.72.07-1.23-.75-.48-.46-.7.26-.78.41-.05.19-.33.1-.52-.2-.42-.59-.75-.61-1.24Z"/>
  <path d="m94.58,146.35c-.08-.37.49-.35.45-.74-.24-.24-.57-.11-.87-.17-.23-.04-.53-.02-.53-.34,0-.31.3-.33.53-.34.32-.02.64.03.95,0,.38-.04.96.18.89-.59,0-.08.1-.18.16-.27.93,1.04,1.03-.55,1.61-.54.28.37-.21.69,0,1.07.62.11,1.14-.49,1.83-.35-.37.51-1.37.47-1.12,1.39-.23.05-.45.16-.68.15-.59-.03-.78.18-.7.78.04.28.35,1.34-.59.38-.22-.23-.43.56-.88.38-.26-.32.16-.58.09-.89-.39-.19-.72.38-1.14.08Z"/>
  <path d="m62.33,162.44c-.89.07.3,2.2-1.36,1.21-.41.47.53,1.28-.61,1.56-.71.17-.8-.03-.78-.51.03-.6.06-1.06-.76-.78-.19.07-.42.08-.52-.14-.1-.22.09-.37.25-.48.38-.26.8-.43.39-1.07-.21-.33.31-.55.58-.58.54-.06.93-.27,1.24-.83.06.98.22,1.8,1.57,1.62Z"/>
  <path d="m87.09,148.54c.66.42,1.16,1.34,1.64.14.51.48-.1.9.17,1.38.43.05.78-.38,1.22-.44q-.34,1-1.15,1.35c-.1.04-.22.1-.28.18-.73,1.12-1.12,1.23-2.36.63.04-.28.28-.36.47-.5.15-.11.31-.22.49-.34-.25-.41-.81-.22-1.01-.73,1.17.05,1.03-.74.8-1.68Z"/>
  <path d="m102.67,158.49c-1.42-.83-2.22.58-3.31.81-.29-.66.43-.86.44-1.34-.41-.33-.96.07-1.35-.29.37-.89,1.51-.78,2.01-1.53.1-.16,1.59.53,1.51.68-.4.8.34,1.03.71,1.66Z"/>
  <path d="m82.15,175.17c-.47.22-.98.44-1.48.68-1.27.59-2.57,1.07-3.93,1.4-.58.14-1.3.26-1.55-.46-.26-.76.42-.97.98-1.21,1.86-.8,3.8-1.43,5.55-2.49.73-.44,1.29-.36,1.97.34.98,1.02,2.19,1.82,3.3,2.72.25.2.52.38.72.61.36.43.5.93.09,1.41-.42.49-.92.41-1.39.07-1.19-.87-2.37-1.75-3.55-2.64-.22-.16-.37-.43-.73-.43Z"/>
  <path d="m83.4,165.81c-.02.3-.18.56-.48.74-.46.28-.9.11-1.23-.16-.87-.73-1.91-1.16-2.85-1.76-.66-.43-1.12-.3-1.66.25-.89.91-1.72,1.9-2.8,2.62-.35.23-.74.47-1.06.07-.3-.37-.07-.75.22-1.06,1.13-1.18,2.27-2.36,3.38-3.56.56-.61,1.17-.75,1.93-.41,1.35.61,2.69,1.23,3.85,2.17.35.28.67.58.69,1.11Z"/>
  <path d="m80.63,167.97c.01,1.56-.83,2.61-2.14,2.63-1.2.03-2.12-1.07-2.15-2.54-.02-1.52.91-2.75,2.08-2.73,1.27.02,2.19,1.12,2.21,2.63Z"/>
  <path d="m95.72,102.83c-1.44.37-3.12-.25-4.73-1.24-.41-.26-.81-.53-1.06-.94-.15-.26-.32-.6.12-.81,1.23-.58,2.11-1.7,3.39-2.21.66-.26,1.33-.65,1.97.05.27.29.54.27.85.08,1.22-.74,2.4-.56,3.61.1.73.4,1.54.63,2.32.94.51.2.78.58.31.98-1.82,1.57-3.72,3.01-6.78,3.05Zm-4.68-2.18c3.12,2.62,8.29,1.76,10.17-.81-3.26,1.19-6.63.82-10.17.81Z"/>
  <path d="m109.95,92.63c-1.77,0-2.63-1.6-1.8-3.33,1.16-2.43,4.67-2.94,6.42-.93.58.66.41,1.33-.04,1.96-.84,1.17-3.12,2.3-4.58,2.3Z"/>
  <path d="m85.4,91.86c-1.44,0-2.63-.57-3.57-1.64-.63-.72-.62-1.54-.21-2.34.4-.76,1.13-.81,1.87-.67,1.06.19,2.12.41,3.03,1.03.77.52,1.34,1.21,1,2.21-.33.98-1.09,1.42-2.12,1.41Z"/>
  <path d="m97.44,95.57c.03.69-.17,1.13-.69,1.08-.9-.09-.71-.92-.81-1.5-.08-.45.07-1.03.62-.92.71.15.86.85.88,1.34Z"/>
</svg>