<svg width="984" height="209" viewBox="0 0 984 209" fill="none" xmlns="http://www.w3.org/2000/svg">
<path fill-rule="evenodd" clip-rule="evenodd" d="M105.889 17.0156L112.691 29.4737C124.74 51.5413 134.946 67.3721 146.669 79.0151C156.39 88.6689 167.188 95.479 180.96 100.535L200.493 107.707L180.944 114.834C169.254 119.095 156.167 125.68 144.319 134.708C130.122 145.526 117.784 159.8 111.605 177.705L105.347 195.841L97.4683 178.348C90.4448 162.754 82.2673 150.593 71.7542 140.674C60.562 130.115 46.6343 122.012 28.4453 115.065L9.58301 107.861L28.5067 100.819C48.2681 93.4658 61.3566 84.3141 71.6433 72.9919C82.3263 61.233 90.1065 46.9809 99.2747 29.5743L105.889 17.0156ZM106.17 48.9594C99.3014 61.4657 92.133 73.0803 82.9122 83.2297C74.1149 92.9126 63.6709 101.072 50.255 107.919C62.4811 113.916 73.0306 120.947 82.2018 129.599L82.2022 129.599C90.7874 137.699 97.8845 146.956 103.993 157.602C111.976 143.275 123.182 131.673 135.091 122.598L135.092 122.597C142.984 116.584 151.318 111.571 159.496 107.507C150.829 102.747 143.118 96.9458 135.941 89.818C125.112 79.0635 115.794 65.5591 106.17 48.9594Z" fill="#393939"/>
<path d="M104.671 122.55C113.782 122.55 121.168 114.387 121.168 104.317C121.168 94.2473 113.782 86.0842 104.671 86.0842C95.5607 86.0842 88.175 94.2473 88.175 104.317C88.175 114.387 95.5607 122.55 104.671 122.55Z" fill="#393939"/>
<path d="M727.647 151.804L727.647 57.833H753.959C766.578 57.833 776.154 61.0549 782.687 67.4986C789.31 73.8528 792.622 83.3393 792.622 95.9583V113.678C792.622 126.297 789.31 135.829 782.687 142.272C776.154 148.627 766.578 151.804 753.959 151.804H727.647ZM745.368 135.694H754.228C761.387 135.694 766.623 133.815 769.934 130.056C773.246 126.297 774.901 121.017 774.901 114.215V95.4213C774.901 88.5301 773.246 83.2498 769.934 79.5805C766.623 75.8217 761.387 73.9423 754.228 73.9423H745.368V135.694Z" fill="#393939"/>
<path d="M216.693 151.134V57.1631H249.583L265.826 139.052H268.242L284.486 57.1631H317.376V151.134H300.193V70.1847H297.776L281.667 151.134H252.402L236.292 70.1847H233.876V151.134H216.693Z" fill="#393939"/>
<path d="M357.806 153.014C351.183 153.014 345.232 151.671 339.951 148.986C334.671 146.301 330.509 142.408 327.467 137.307C324.424 132.206 322.902 126.075 322.902 118.916V116.768C322.902 109.608 324.424 103.478 327.467 98.3765C330.509 93.2752 334.671 89.3821 339.951 86.6972C345.232 84.0124 351.183 82.6699 357.806 82.6699C364.428 82.6699 370.38 84.0124 375.66 86.6972C380.94 89.3821 385.102 93.2752 388.145 98.3765C391.188 103.478 392.709 109.608 392.709 116.768V118.916C392.709 126.075 391.188 132.206 388.145 137.307C385.102 142.408 380.94 146.301 375.66 148.986C370.38 151.671 364.428 153.014 357.806 153.014ZM357.806 137.978C362.996 137.978 367.292 136.323 370.693 133.011C374.094 129.611 375.794 124.778 375.794 118.513V117.171C375.794 110.906 374.094 106.118 370.693 102.806C367.382 99.4057 363.086 97.7052 357.806 97.7052C352.615 97.7052 348.319 99.4057 344.918 102.806C341.517 106.118 339.817 110.906 339.817 117.171V118.513C339.817 124.778 341.517 129.611 344.918 133.011C348.319 136.323 352.615 137.978 357.806 137.978Z" fill="#393939"/>
<path d="M398.415 151.133V84.5486H415.061V93.2744H417.477C418.551 90.9475 420.565 88.7549 423.518 86.6965C426.472 84.5486 430.946 83.4746 436.943 83.4746C442.133 83.4746 446.653 84.6828 450.501 87.0992C454.439 89.4261 457.482 92.6927 459.63 96.899C461.778 101.016 462.852 105.849 462.852 111.397V151.133H445.937V112.74C445.937 107.728 444.684 103.969 442.178 101.463C439.762 98.9574 436.271 97.7044 431.707 97.7044C426.516 97.7044 422.489 99.4496 419.625 102.94C416.761 106.341 415.329 111.129 415.329 117.304V151.133H398.415Z" fill="#393939"/>
<path d="M493.526 153.014C488.783 153.014 484.532 152.208 480.773 150.597C477.014 148.897 474.016 146.48 471.778 143.348C469.631 140.126 468.557 136.233 468.557 131.669C468.557 127.105 469.631 123.301 471.778 120.258C474.016 117.126 477.059 114.799 480.907 113.278C484.845 111.667 489.32 110.861 494.331 110.861H512.589V107.102C512.589 103.97 511.604 101.419 509.635 99.4504C507.666 97.392 504.534 96.3628 500.238 96.3628C496.032 96.3628 492.9 97.3472 490.841 99.3162C488.783 101.196 487.44 103.657 486.814 106.7L471.242 101.464C472.315 98.0632 474.016 94.9756 476.343 92.2012C478.759 89.3374 481.936 87.0552 485.874 85.3548C489.901 83.5649 494.779 82.6699 500.507 82.6699C509.277 82.6699 516.213 84.8626 521.314 89.2479C526.416 93.6332 528.966 99.9874 528.966 108.31V133.146C528.966 135.83 530.219 137.173 532.725 137.173H538.095V151.134H526.818C523.507 151.134 520.777 150.329 518.63 148.718C516.482 147.107 515.408 144.959 515.408 142.274V142.14H512.857C512.499 143.214 511.694 144.646 510.441 146.436C509.188 148.136 507.219 149.658 504.534 151C501.849 152.342 498.18 153.014 493.526 153.014ZM496.479 139.321C501.223 139.321 505.071 138.023 508.024 135.428C511.067 132.743 512.589 129.208 512.589 124.822V123.48H495.54C492.407 123.48 489.946 124.151 488.156 125.494C486.366 126.836 485.471 128.716 485.471 131.132C485.471 133.548 486.411 135.517 488.29 137.039C490.17 138.56 492.9 139.321 496.479 139.321Z" fill="#393939"/>
<path d="M568.77 153.147C563.49 153.147 558.523 151.849 553.869 149.254C549.304 146.569 545.635 142.676 542.861 137.575C540.086 132.473 538.699 126.298 538.699 119.049V116.901C538.699 109.652 540.086 103.477 542.861 98.3755C545.635 93.2742 549.304 89.4259 553.869 86.8305C558.433 84.1456 563.4 82.8032 568.77 82.8032C572.797 82.8032 576.153 83.2954 578.838 84.2799C581.612 85.1748 583.85 86.3383 585.55 87.7702C587.251 89.2022 588.548 90.7236 589.443 92.3345H591.86V57.2969H608.774V151.268H592.128V143.213H589.712C588.19 145.719 585.819 148.001 582.597 150.059C579.465 152.118 574.856 153.147 568.77 153.147ZM573.871 138.38C579.062 138.38 583.402 136.724 586.893 133.413C590.383 130.012 592.128 125.09 592.128 118.646V117.304C592.128 110.86 590.383 105.983 586.893 102.671C583.492 99.2704 579.151 97.57 573.871 97.57C568.68 97.57 564.34 99.2704 560.849 102.671C557.359 105.983 555.614 110.86 555.614 117.304V118.646C555.614 125.09 557.359 130.012 560.849 133.413C564.34 136.724 568.68 138.38 573.871 138.38Z" fill="#393939"/>
<path d="M627.971 76.7995C633.347 76.7995 637.704 71.9833 637.704 66.0423C637.704 60.1013 633.347 55.2852 627.971 55.2852C622.596 55.2852 618.239 60.1013 618.239 66.0423C618.239 71.9833 622.596 76.7995 627.971 76.7995Z" fill="#393939"/>
<path d="M619.648 151.135V84.5504H636.563V151.135H619.648Z" fill="#393939"/>
<path d="M675.225 153.014C668.782 153.014 662.92 151.671 657.639 148.986C652.449 146.301 648.332 142.408 645.289 137.307C642.246 132.206 640.725 126.031 640.725 118.782V116.902C640.725 109.653 642.246 103.478 645.289 98.3765C648.332 93.2752 652.449 89.3821 657.639 86.6972C662.92 84.0124 668.782 82.6699 675.225 82.6699C681.579 82.6699 687.039 83.7886 691.603 86.026C696.167 88.2634 699.837 91.351 702.611 95.2888C705.475 99.1372 707.354 103.522 708.249 108.445L691.871 111.935C691.514 109.25 690.708 106.834 689.455 104.686C688.202 102.538 686.412 100.838 684.085 99.5846C681.848 98.3317 679.029 97.7052 675.628 97.7052C672.227 97.7052 669.14 98.4659 666.365 99.9874C663.68 101.419 661.532 103.612 659.921 106.565C658.4 109.429 657.639 112.964 657.639 117.171V118.513C657.639 122.719 658.4 126.299 659.921 129.253C661.532 132.116 663.68 134.309 666.365 135.83C669.14 137.262 672.227 137.978 675.628 137.978C680.729 137.978 684.578 136.681 687.173 134.085C689.858 131.4 691.558 127.91 692.274 123.614L708.652 127.507C707.489 132.251 705.475 136.591 702.611 140.529C699.837 144.377 696.167 147.42 691.603 149.658C687.039 151.895 681.579 153.014 675.225 153.014Z" fill="#393939"/>
<path d="M800.139 151.134V57.1631H833.834L852.494 139.052H854.91V57.1631H872.362V151.134H838.667L820.007 69.245H817.59V151.134H800.139Z" fill="#393939"/>
<path d="M874.98 151.134L899.681 57.1631H930.557L955.258 151.134H937.001L931.899 130.46H898.338L893.237 151.134H874.98ZM902.5 114.082H927.738L916.327 68.3053H913.911L902.5 114.082Z" fill="#393939"/>
</svg>
