<svg width="512" height="512" viewBox="0 0 512 512" fill="none" xmlns="http://www.w3.org/2000/svg">
<path fill-rule="evenodd" clip-rule="evenodd" d="M258.946 41.3545L275.689 72.0206C305.348 126.341 330.469 165.309 359.327 193.969C383.256 217.732 409.836 234.495 443.735 246.942L491.815 264.595L443.694 282.137C414.919 292.627 382.705 308.836 353.541 331.058C318.596 357.688 288.224 392.823 273.016 436.897L257.611 481.54L238.217 438.48C220.928 400.095 200.799 370.16 174.921 345.743C147.37 319.753 113.087 299.808 68.3139 282.707L21.8838 264.973L68.4651 247.64C117.109 229.539 149.326 207.012 174.648 179.142C200.944 150.197 220.096 115.115 242.663 72.2681L258.946 41.3545ZM259.638 119.985C242.729 150.77 225.084 179.36 202.386 204.343C180.732 228.178 155.023 248.262 121.999 265.117C152.095 279.879 178.062 297.185 200.638 318.483L200.639 318.484C221.771 338.422 239.241 361.209 254.277 387.414C273.929 352.146 301.511 323.588 330.827 301.249L330.828 301.248C350.256 286.445 370.771 274.107 390.901 264.101C369.567 252.384 350.586 238.106 332.919 220.56C306.263 194.088 283.326 160.846 259.638 119.985Z" fill="#393939"/>
<path d="M255.947 301.131C278.374 301.131 296.554 281.037 296.554 256.25C296.554 231.463 278.374 211.369 255.947 211.369C233.521 211.369 215.341 231.463 215.341 256.25C215.341 281.037 233.521 301.131 255.947 301.131Z" fill="#393939"/>
</svg>
