<svg width="512" height="512" viewBox="0 0 512 512" fill="none" xmlns="http://www.w3.org/2000/svg">
<path fill-rule="evenodd" clip-rule="evenodd" d="M255.093 103.347L261.307 114.727C272.313 134.885 281.635 149.345 292.344 159.981C301.224 168.799 311.088 175.02 323.667 179.639L341.51 186.19L323.652 192.7C312.974 196.592 301.02 202.607 290.197 210.854C277.229 220.736 265.958 233.775 260.315 250.13L254.598 266.697L247.401 250.718C240.985 236.473 233.515 225.364 223.912 216.303C213.688 206.659 200.966 199.257 184.351 192.911L167.121 186.33L184.407 179.898C202.458 173.181 214.414 164.821 223.811 154.479C233.569 143.738 240.676 130.719 249.051 114.819L255.093 103.347ZM255.35 132.526C249.075 143.95 242.527 154.56 234.105 163.831C226.068 172.676 216.528 180.129 204.273 186.383C215.442 191.862 225.078 198.284 233.456 206.187L233.456 206.188C241.298 213.587 247.781 222.043 253.361 231.767C260.654 218.68 270.889 208.082 281.768 199.792L281.768 199.791C288.978 194.298 296.591 189.72 304.061 186.007C296.144 181.659 289.101 176.36 282.544 169.849C272.652 160.025 264.141 147.689 255.35 132.526Z" fill="white"/>
<path d="M253.981 199.748C262.303 199.748 269.049 192.291 269.049 183.093C269.049 173.895 262.303 166.438 253.981 166.438C245.658 166.438 238.912 173.895 238.912 183.093C238.912 192.291 245.658 199.748 253.981 199.748Z" fill="white"/>
<path d="M342.965 342.307L342.965 284.565H359.133C366.886 284.565 372.771 286.545 376.785 290.505C380.855 294.409 382.889 300.238 382.889 307.992V318.881C382.889 326.634 380.855 332.491 376.785 336.451C372.771 340.355 366.886 342.307 359.133 342.307H342.965ZM353.853 332.409H359.298C363.697 332.409 366.914 331.254 368.949 328.944C370.983 326.634 372.001 323.39 372.001 319.211V307.662C372.001 303.428 370.983 300.183 368.949 297.929C366.914 295.619 363.697 294.464 359.298 294.464H353.853V332.409Z" fill="white"/>
<path d="M29 341.896V284.154H49.2096L59.1907 334.472H60.6755L70.6566 284.154H90.8663V341.896H80.3077V292.156H78.823L68.9244 341.896H50.9419L41.0433 292.156H39.5585V341.896H29Z" fill="white"/>
<path d="M115.709 343.051C111.64 343.051 107.983 342.226 104.738 340.576C101.494 338.927 98.9365 336.534 97.0668 333.4C95.1971 330.265 94.2622 326.498 94.2622 322.099V320.779C94.2622 316.38 95.1971 312.613 97.0668 309.478C98.9365 306.344 101.494 303.952 104.738 302.302C107.983 300.652 111.64 299.827 115.709 299.827C119.779 299.827 123.436 300.652 126.68 302.302C129.925 303.952 132.482 306.344 134.352 309.478C136.221 312.613 137.156 316.38 137.156 320.779V322.099C137.156 326.498 136.221 330.265 134.352 333.4C132.482 336.534 129.925 338.927 126.68 340.576C123.436 342.226 119.779 343.051 115.709 343.051ZM115.709 333.812C118.899 333.812 121.538 332.795 123.628 330.76C125.718 328.671 126.763 325.701 126.763 321.852V321.027C126.763 317.177 125.718 314.235 123.628 312.2C121.593 310.111 118.954 309.066 115.709 309.066C112.52 309.066 109.88 310.111 107.79 312.2C105.701 314.235 104.656 317.177 104.656 321.027V321.852C104.656 325.701 105.701 328.671 107.79 330.76C109.88 332.795 112.52 333.812 115.709 333.812Z" fill="white"/>
<path d="M140.662 341.895V300.981H150.891V306.343H152.375C153.035 304.913 154.273 303.566 156.087 302.301C157.902 300.981 160.652 300.321 164.336 300.321C167.526 300.321 170.303 301.064 172.668 302.548C175.087 303.978 176.957 305.985 178.277 308.57C179.597 311.1 180.257 314.069 180.257 317.479V341.895H169.863V318.304C169.863 315.224 169.093 312.915 167.553 311.375C166.069 309.835 163.924 309.065 161.119 309.065C157.93 309.065 155.455 310.137 153.695 312.282C151.936 314.372 151.056 317.314 151.056 321.108V341.895H140.662Z" fill="white"/>
<path d="M199.105 343.051C196.19 343.051 193.578 342.556 191.269 341.566C188.959 340.521 187.117 339.037 185.742 337.112C184.422 335.132 183.762 332.74 183.762 329.935C183.762 327.131 184.422 324.794 185.742 322.924C187.117 320.999 188.986 319.569 191.351 318.634C193.771 317.645 196.52 317.15 199.6 317.15H210.818V314.84C210.818 312.915 210.213 311.348 209.004 310.138C207.794 308.873 205.869 308.241 203.229 308.241C200.645 308.241 198.72 308.846 197.455 310.056C196.19 311.211 195.366 312.723 194.981 314.593L185.412 311.376C186.072 309.286 187.117 307.389 188.547 305.684C190.031 303.924 191.984 302.522 194.403 301.477C196.878 300.377 199.875 299.827 203.394 299.827C208.784 299.827 213.046 301.174 216.18 303.869C219.315 306.564 220.882 310.468 220.882 315.582V330.843C220.882 332.493 221.652 333.317 223.192 333.317H226.491V341.896H219.562C217.527 341.896 215.85 341.401 214.53 340.411C213.211 339.422 212.551 338.102 212.551 336.452V336.369H210.983C210.763 337.029 210.268 337.909 209.499 339.009C208.729 340.054 207.519 340.989 205.869 341.814C204.219 342.639 201.965 343.051 199.105 343.051ZM200.92 334.637C203.834 334.637 206.199 333.84 208.014 332.245C209.884 330.595 210.818 328.423 210.818 325.728V324.904H200.342C198.418 324.904 196.905 325.316 195.806 326.141C194.706 326.966 194.156 328.121 194.156 329.605C194.156 331.09 194.733 332.3 195.888 333.235C197.043 334.17 198.72 334.637 200.92 334.637Z" fill="white"/>
<path d="M245.34 343.133C242.095 343.133 239.043 342.336 236.183 340.741C233.379 339.091 231.124 336.699 229.419 333.564C227.715 330.43 226.862 326.635 226.862 322.181V320.861C226.862 316.407 227.715 312.612 229.419 309.478C231.124 306.343 233.379 303.979 236.183 302.384C238.988 300.734 242.04 299.909 245.34 299.909C247.814 299.909 249.877 300.212 251.526 300.816C253.231 301.366 254.606 302.081 255.651 302.961C256.696 303.841 257.493 304.776 258.043 305.766H259.528V284.236H269.921V341.978H259.693V337.029H258.208C257.273 338.569 255.816 339.971 253.836 341.236C251.911 342.501 249.079 343.133 245.34 343.133ZM248.474 334.059C251.664 334.059 254.331 333.042 256.476 331.007C258.62 328.918 259.693 325.893 259.693 321.934V321.109C259.693 317.149 258.62 314.152 256.476 312.117C254.386 310.028 251.719 308.983 248.474 308.983C245.285 308.983 242.618 310.028 240.473 312.117C238.328 314.152 237.256 317.149 237.256 321.109V321.934C237.256 325.893 238.328 328.918 240.473 331.007C242.618 333.042 245.285 334.059 248.474 334.059Z" fill="white"/>
<path d="M281.717 296.22C285.02 296.22 287.697 293.26 287.697 289.61C287.697 285.959 285.02 283 281.717 283C278.414 283 275.736 285.959 275.736 289.61C275.736 293.26 278.414 296.22 281.717 296.22Z" fill="white"/>
<path d="M276.602 341.897V300.983H286.996V341.897H276.602Z" fill="white"/>
<path d="M310.753 343.051C306.793 343.051 303.191 342.226 299.947 340.576C296.757 338.927 294.228 336.534 292.358 333.4C290.488 330.265 289.553 326.471 289.553 322.017V320.862C289.553 316.407 290.488 312.613 292.358 309.478C294.228 306.344 296.757 303.952 299.947 302.302C303.191 300.652 306.793 299.827 310.753 299.827C314.657 299.827 318.012 300.515 320.816 301.889C323.621 303.264 325.876 305.161 327.58 307.581C329.34 309.946 330.495 312.64 331.045 315.665L320.981 317.81C320.761 316.16 320.266 314.675 319.496 313.355C318.727 312.035 317.627 310.991 316.197 310.221C314.822 309.451 313.09 309.066 311 309.066C308.91 309.066 307.013 309.533 305.308 310.468C303.659 311.348 302.339 312.695 301.349 314.51C300.414 316.27 299.947 318.442 299.947 321.027V321.852C299.947 324.436 300.414 326.636 301.349 328.451C302.339 330.21 303.659 331.558 305.308 332.493C307.013 333.372 308.91 333.812 311 333.812C314.135 333.812 316.499 333.015 318.094 331.42C319.744 329.77 320.789 327.626 321.229 324.986L331.292 327.378C330.577 330.293 329.34 332.96 327.58 335.38C325.876 337.744 323.621 339.614 320.816 340.989C318.012 342.364 314.657 343.051 310.753 343.051Z" fill="white"/>
<path d="M387.508 341.896V284.154H408.213L419.679 334.472H421.164V284.154H431.887V341.896H411.182L399.717 291.578H398.232V341.896H387.508Z" fill="white"/>
<path d="M433.496 341.896L448.673 284.154H467.646L482.824 341.896H471.605L468.471 329.193H447.849L444.714 341.896H433.496ZM450.406 319.129H465.914L458.902 291.001H457.417L450.406 319.129Z" fill="white"/>
</svg>
